<mxfile host="app.diagrams.net" modified="2024-05-04T13:09:46.264Z" agent="Mozilla/5.0 (Windows NT 10.0; Win64; x64) AppleWebKit/537.36 (KHTML, like Gecko) Chrome/124.0.0.0 Safari/537.36" version="23.1.4" etag="QmSWtxIrrhAr67qWPCCJ" type="github">
  <diagram name="ページ1" id="wqm9MOyWishyHEgS-4JB">
    <mxGraphModel>
      <root>
        <mxCell id="0" />
        <mxCell id="1" parent="0" />
      </root>
    </mxGraphModel>
  </diagram>
</mxfile>
